<svg

   viewBox="0 0 119.83031 37.324188"
   version="1.1"
   id="svg85823"
   xmlns="http://www.w3.org/2000/svg"
   xmlns:svg="http://www.w3.org/2000/svg">
  <defs
     id="defs85820" />
  <g
     id="layer1"
     transform="translate(-39.721096,-144.72607)">
    <rect
       style="clip-rule:evenodd;fill:none;fill-rule:evenodd;stroke-width:0.215714;stroke-linejoin:round;stroke-miterlimit:2"
       id="rect29178"
       width="119.83031"
       height="37.324188"
       x="39.721096"
       y="144.72607" />
    <path
       style="clip-rule:evenodd;fill:#7e0087;fill-opacity:1;fill-rule:evenodd;stroke-width:0.0112441;stroke-linejoin:round;stroke-miterlimit:2"
       d="m 81.293332,171.73728 -0.0096,-2.4e-4 -0.112437,-0.19176 -0.112445,-0.19176 -0.0075,-0.0122 -0.0075,-0.0122 -0.200993,0.12003 -0.200994,0.12001 -0.01077,-1.6e-4 -0.01077,-1.8e-4 -0.117501,-0.20037 -0.117499,-0.20036 -0.20239,0.12147 -0.202383,0.12148 -0.0024,-0.002 -0.0024,-0.002 -0.366488,-0.61574 -0.366487,-0.61574 7.93e-4,-0.008 7.94e-4,-0.008 0.191794,-0.11245 0.191796,-0.11244 0.0057,-0.009 0.0056,-0.009 -0.120822,-0.20233 -0.120809,-0.20232 0.01016,-0.009 0.01013,-0.009 0.193961,-0.11461 0.193958,-0.11461 v -0.006 -0.006 l -0.112295,-0.18934 -0.112286,-0.18934 -0.0061,-0.0158 -0.0061,-0.0158 0.405085,-0.2408 0.405095,-0.24079 v -0.008 -0.008 l -0.117221,-0.1971 -0.117218,-0.19708 0.207542,-0.12473 0.207542,-0.12472 -0.02193,-0.0357 -0.02193,-0.0357 -0.101365,-0.17126 -0.101367,-0.17127 0.207629,-0.12477 0.207632,-0.12478 -0.02199,-0.0357 -0.02199,-0.0357 -0.100499,-0.16866 -0.100489,-0.16867 0.0036,-0.007 0.0037,-0.007 0.183147,-0.10846 0.183145,-0.10847 0.01527,-0.01 0.01524,-0.01 -0.118534,-0.20042 -0.118525,-0.2004 0.0048,-0.008 0.0047,-0.008 0.404673,-0.24023 0.404661,-0.24024 v -0.0112 -0.0112 l -0.117422,-0.19673 -0.117422,-0.19673 0.01368,-0.0123 0.01368,-0.0123 0.392189,-0.23274 0.392179,-0.23274 0.0091,-0.002 0.0091,-0.002 0.242443,0.40868 0.242441,0.40868 v 0.007 0.007 l -0.202203,0.11807 -0.202208,0.11806 0.0029,0.012 0.0029,0.012 0.606703,1.01967 0.606695,1.01966 h 0.0078 0.0078 l 0.199853,-0.11939 0.199853,-0.11939 0.01408,0.0193 0.01408,0.0193 0.110254,0.18224 0.110252,0.18223 0.195141,-0.11657 0.195136,-0.11658 0.01331,-0.005 0.01331,-0.005 0.122616,0.20628 0.122613,0.20629 0.203189,-0.1208 0.203184,-0.12081 0.0013,0.002 0.0013,0.002 0.36689,0.61684 0.3669,0.61685 v 0.007 0.007 l -0.200774,0.11843 -0.200771,0.11843 0.12318,0.20615 0.123184,0.20616 -0.0094,0.009 -0.0094,0.009 -0.197554,0.11676 -0.197548,0.11675 0.120263,0.20217 0.120272,0.20219 -0.01828,0.0124 -0.01828,0.0124 -0.598827,0.35595 -0.598831,0.35595 -0.0084,-2.3e-4 -0.0083,-2.3e-4 -0.117298,-0.20011 -0.117303,-0.20011 -0.202692,0.12166 -0.202689,0.12166 h -0.0086 -0.0086 l -0.114337,-0.19397 -0.114335,-0.19396 -0.0084,-0.009 -0.0084,-0.009 -0.195183,0.11515 -0.195183,0.11516 -0.0078,0.004 -0.0078,0.004 -0.119894,-0.20264 -0.119893,-0.20264 h -0.01058 -0.01058 l -0.193452,0.11419 -0.193453,0.11419 -0.0033,0.002 -0.0033,0.002 0.10909,0.18412 0.109088,0.18411 0.01535,0.0237 0.01535,0.0237 -0.617548,0.36699 -0.617538,0.36699 -0.0096,-2.3e-4 z m -0.971055,-1.66991 0.01696,-0.007 0.188658,-0.11227 0.188659,-0.11228 -0.02867,-0.0472 -0.02867,-0.0472 -0.08691,-0.1487 -0.0869,-0.14871 -0.0099,-2.3e-4 -0.0099,-2.3e-4 -0.195307,0.11525 -0.1953,0.11525 0.0028,0.0123 0.0028,0.0123 0.112336,0.18749 0.112342,0.18748 0.01696,-0.007 z m 2.962042,-0.63475 h 0.0042 l 0.189479,-0.11306 0.189479,-0.11307 0.0093,-0.009 0.0093,-0.009 -0.109119,-0.18408 -0.109122,-0.18407 -0.01405,-0.0151 -0.01402,-0.0151 -0.197881,0.11625 -0.197885,0.11625 v 0.007 0.007 l 0.101994,0.17255 0.101992,0.17254 0.01635,0.0253 0.01635,0.0253 h 0.0042 z m -0.910775,-0.58469 h 0.0042 l 0.189474,-0.11307 0.189481,-0.11306 0.0097,-0.01 0.0097,-0.01 -0.106611,-0.17807 -0.106616,-0.17808 -0.01201,-0.0233 -0.01204,-0.0233 0.206579,-0.12278 0.206573,-0.12279 -0.02043,-0.0338 -0.02043,-0.0338 -0.58743,-0.98949 -0.587431,-0.98947 -0.0072,-0.008 -0.0072,-0.008 -0.07282,0.0431 -0.07283,0.0431 -0.334513,0.19922 -0.33451,0.19922 v 0.009 0.009 l 0.113342,0.18799 0.113342,0.188 0.0053,0.0137 0.0053,0.0137 -0.202978,0.1212 -0.202975,0.12121 0.02148,0.0351 0.02146,0.0351 0.102505,0.1731 0.102499,0.17311 -0.003,0.002 -0.003,0.002 -0.205589,0.12114 -0.205597,0.12113 0.01524,0.0239 0.01524,0.0239 0.228708,0.3836 0.228708,0.3836 0.193416,-0.11631 0.193405,-0.11632 0.01569,-0.006 0.01569,-0.006 0.123288,0.20617 0.123285,0.20618 0.201975,-0.12122 0.201967,-0.12123 0.01307,0.0192 0.01307,0.0192 0.09281,0.15742 0.09281,0.15742 0.01601,0.0253 0.01601,0.0253 z"
       id="path4708" />
    <path
       style="clip-rule:evenodd;fill:#7e0087;fill-opacity:1;fill-rule:evenodd;stroke-width:0.0141599;stroke-linejoin:round;stroke-miterlimit:2"
       d="m 45.47475,172.38695 c -0.0031,-0.01 -0.01863,-0.0647 -0.03436,-0.12213 -0.01574,-0.0574 -0.03102,-0.10685 -0.03399,-0.10982 -0.0029,-0.003 -0.116326,0.0239 -0.251923,0.0597 l -0.246538,0.0651 -0.03571,-0.0139 -0.03571,-0.0139 -0.02698,-0.10833 -0.02697,-0.10833 -0.02111,0.008 c -0.231772,0.0889 -0.275741,0.0774 -0.320072,-0.0837 -0.04215,-0.15321 -0.02593,-0.14235 -0.158136,-0.10577 -0.06139,0.017 -0.125664,0.0325 -0.142822,0.0345 l -0.03119,0.004 -0.014,-0.0447 c -0.0077,-0.0246 -0.04076,-0.14666 -0.07347,-0.27126 -0.0327,-0.12461 -0.06038,-0.22785 -0.06151,-0.22943 -7.94e-4,-0.002 -0.05192,0.01 -0.11289,0.0255 -0.136096,0.0349 -0.09175,0.13205 -0.307295,-0.67343 -0.206729,-0.77259 -0.200496,-0.71915 -0.08671,-0.7433 0.04639,-0.01 0.09279,-0.0231 0.103095,-0.0295 l 0.01873,-0.0116 -0.06788,-0.25681 c -0.03733,-0.14125 -0.06475,-0.25993 -0.06095,-0.26373 0.0038,-0.004 0.06819,-0.0235 0.143068,-0.0437 0.07489,-0.0202 0.135938,-0.0438 0.135662,-0.0524 0,-0.009 -0.01566,-0.073 -0.03424,-0.14307 -0.0411,-0.15517 -0.05925,-0.13659 0.199588,-0.20439 l 0.05866,-0.0154 -0.0326,-0.12814 -0.03261,-0.12813 0.03058,-0.0113 c 0.0168,-0.006 0.133561,-0.0386 0.259408,-0.0719 0.125849,-0.0333 0.236405,-0.0653 0.245676,-0.071 l 0.01685,-0.0104 -0.07316,-0.27228 c -0.04024,-0.14975 -0.07035,-0.2751 -0.06691,-0.27854 0.0034,-0.003 0.11697,-0.0354 0.252278,-0.0711 0.135318,-0.0357 0.250073,-0.0689 0.255008,-0.0738 0.0086,-0.008 -0.106318,-0.45075 -0.12092,-0.46536 -0.0039,-0.004 -0.05207,0.004 -0.107056,0.0174 l -0.09999,0.0245 -0.01881,-0.0156 c -0.01035,-0.009 -0.0226,-0.0119 -0.02717,-0.007 -0.0088,0.009 -0.04538,-0.10352 -0.0612,-0.18783 -0.01241,-0.0661 -0.02609,-0.0688 -0.161724,-0.0322 l -0.116033,0.0313 -0.01029,-0.0166 c -0.0057,-0.009 -0.04388,-0.14266 -0.08493,-0.29667 l -0.07463,-0.28002 -0.398552,0.1062 c -0.21921,0.0584 -0.401563,0.10855 -0.405236,0.11141 -0.0037,0.003 0.01066,0.0711 0.03185,0.15173 0.02119,0.0806 0.03854,0.15573 0.03854,0.16697 v 0.0205 l -0.14818,0.0393 c -0.185957,0.0493 -0.179257,0.0529 -0.22616,-0.12208 -0.02159,-0.0806 -0.04157,-0.15032 -0.04439,-0.15501 -0.0028,-0.005 -0.05317,0.004 -0.111887,0.02 -0.124892,0.0333 -0.114335,0.0392 -0.149056,-0.0823 -0.01511,-0.0527 -0.02985,-0.0983 -0.03282,-0.10126 -0.0029,-0.003 -0.06764,0.0112 -0.143703,0.0314 -0.162607,0.0433 -0.148865,0.0529 -0.198974,-0.13953 -0.04638,-0.17817 -0.05407,-0.16497 0.123505,-0.21185 l 0.137403,-0.0363 0.01402,0.0447 c 0.0077,0.0246 0.02825,0.0988 0.04563,0.16504 0.01738,0.0662 0.03206,0.12139 0.03264,0.12266 7.94e-4,0.001 0.0581,-0.0129 0.127828,-0.0316 0.143269,-0.0383 0.134292,-0.0431 0.168918,0.0904 l 0.02508,0.0967 0.121065,-0.0323 c 0.147701,-0.0394 0.135406,-0.022 0.103312,-0.14674 -0.01487,-0.0578 -0.02479,-0.10738 -0.02204,-0.11014 0.01564,-0.0156 0.848931,-0.22947 0.857189,-0.21995 0.0055,0.006 0.02122,0.0545 0.035,0.10707 0.01378,0.0526 0.03015,0.0956 0.03637,0.0956 0.0062,0 0.073,-0.0164 0.148386,-0.0365 0.07539,-0.02 0.138663,-0.0344 0.140616,-0.0318 0.0021,0.003 0.03429,0.1225 0.07186,0.26657 0.08249,0.31636 0.06536,0.29494 0.205118,0.25663 0.146513,-0.0402 0.129437,-0.0579 0.197495,0.2052 l 0.01508,0.0583 0.09555,-0.0268 c 0.05255,-0.0147 0.119465,-0.0323 0.148688,-0.0391 l 0.05314,-0.0122 0.02074,0.0728 c 0.01143,0.0401 0.04275,0.15465 0.06965,0.25464 0.0269,0.1 0.051,0.18356 0.05355,0.18572 0.0026,0.002 0.119214,-0.0269 0.259229,-0.0646 0.140022,-0.0377 0.258489,-0.0639 0.263268,-0.0583 0.0048,0.006 0.03991,0.12968 0.07808,0.27571 l 0.0694,0.26549 0.02132,-2.3e-4 c 0.01172,-1.7e-4 0.136028,-0.0313 0.276212,-0.0691 0.140187,-0.0378 0.257085,-0.0667 0.259778,-0.0643 0.0027,0.002 0.02013,0.0568 0.03875,0.12082 0.04223,0.14528 0.02312,0.1357 0.185047,0.0928 l 0.138229,-0.0366 0.0098,0.0158 c 0.0054,0.009 0.02418,0.0706 0.04181,0.13769 0.01762,0.0671 0.03409,0.12587 0.03658,0.13069 0.0024,0.005 0.0604,-0.006 0.128717,-0.0237 l 0.124201,-0.0324 0.01101,0.0237 c 0.006,0.013 0.03893,0.12767 0.07306,0.25481 0.07451,0.27757 0.05146,0.25307 0.20093,0.21358 l 0.123769,-0.0327 0.0057,0.017 c 0.0031,0.009 0.0131,0.017 0.0222,0.0171 0.01876,1.4e-4 0.384985,1.35004 0.371965,1.37111 -0.0045,0.007 -0.06569,0.0275 -0.135962,0.0448 -0.158956,0.0393 -0.151574,0.005 -0.06723,0.31657 l 0.07201,0.26644 -0.02008,0.0129 c -0.01886,0.0122 -0.04533,0.0202 -0.181454,0.0556 l -0.05516,0.0143 0.03743,0.14198 0.03743,0.14199 -0.02098,0.013 c -0.01156,0.007 -0.07206,0.0266 -0.134495,0.0433 -0.144621,0.0386 -0.138959,0.0295 -0.103153,0.16551 0.0374,0.14202 0.06169,0.12187 -0.246608,0.2046 -0.308239,0.0827 -0.27963,0.0583 -0.240575,0.20565 0.04015,0.15157 0.119594,0.11283 -0.658468,0.321 -0.718871,0.19234 -0.696527,0.18723 -0.70507,0.16103 z m -0.749983,-2.17856 c 0.0628,-0.016 0.122317,-0.034 0.132255,-0.0402 l 0.01805,-0.0112 -0.03527,-0.13997 -0.03527,-0.13998 0.01654,-0.009 c 0.0091,-0.005 0.0704,-0.0232 0.136248,-0.04 0.06584,-0.0168 0.124039,-0.0332 0.129307,-0.0365 0.01466,-0.009 -0.06295,-0.28922 -0.08012,-0.28922 -0.0083,0 -0.02909,-0.0478 -0.04627,-0.1062 -0.03545,-0.1205 -0.02588,-0.11639 -0.175641,-0.0753 l -0.112588,0.0309 -0.01228,-0.0198 c -0.0068,-0.0109 -0.02275,-0.0626 -0.03555,-0.11487 -0.01413,-0.0576 -0.02973,-0.0929 -0.03969,-0.0898 -0.009,0.003 -0.115173,0.0315 -0.235887,0.0636 -0.120708,0.0321 -0.229692,0.0613 -0.242183,0.0649 l -0.0227,0.007 0.02738,0.0998 c 0.03547,0.12937 0.03411,0.13152 -0.106302,0.16861 l -0.119374,0.0315 0.03865,0.14353 c 0.02127,0.0789 0.05263,0.19513 0.06972,0.25819 l 0.03108,0.11465 0.09462,-0.0264 c 0.05204,-0.0145 0.112104,-0.0226 0.133479,-0.018 l 0.03886,0.008 0.02056,0.0732 c 0.0113,0.0403 0.02734,0.0997 0.03565,0.13203 l 0.01508,0.0588 0.12373,-0.0344 c 0.06805,-0.0189 0.175109,-0.0475 0.237916,-0.0634 z m -2.250424,-2.30176 c -0.03368,-0.11124 -0.135466,-0.50349 -0.139041,-0.53583 l -0.0044,-0.0404 0.145002,-0.0388 c 0.07975,-0.0214 0.147693,-0.0345 0.150979,-0.0292 0.01191,0.0193 0.150056,0.54133 0.150056,0.56706 v 0.0264 l -0.116819,0.0299 c -0.06425,0.0164 -0.13054,0.0337 -0.147312,0.0384 l -0.0305,0.009 z m -0.901057,-0.0968 c -0.008,-0.0211 -0.025,-0.0798 -0.03771,-0.13039 l -0.0231,-0.092 0.01746,-0.0108 c 0.0096,-0.006 0.01529,-0.016 0.0127,-0.0224 -0.0026,-0.006 0.04305,-0.0243 0.101454,-0.0398 0.05841,-0.0155 0.108239,-0.0296 0.110731,-0.0314 0.0024,-0.002 -0.01262,-0.0684 -0.03361,-0.14789 l -0.03814,-0.14459 0.01839,-0.0113 c 0.02556,-0.0158 0.309782,-0.0903 0.316987,-0.0831 0.0032,0.003 0.0249,0.0791 0.04811,0.16858 l 0.04224,0.16272 -0.01664,0.009 c -0.0092,0.005 -0.07051,0.0232 -0.136353,0.04 -0.06584,0.0168 -0.123854,0.0331 -0.1289,0.0362 -0.0051,0.003 0.0054,0.0616 0.02323,0.12988 l 0.03242,0.1242 -0.09542,0.0307 c -0.05247,0.0169 -0.118758,0.0351 -0.147307,0.0405 l -0.05189,0.01 z m -0.542361,-0.84744 c -0.02059,-0.0791 -0.03189,-0.1457 -0.02514,-0.14802 0.0068,-0.002 0.0094,-0.0153 0.0058,-0.0288 l -0.0064,-0.0246 0.124749,-0.0332 c 0.06861,-0.0183 0.194487,-0.0515 0.27973,-0.0738 l 0.15498,-0.0405 0.0096,0.0156 c 0.02291,0.0371 0.08708,0.3124 0.07539,0.32346 -0.0132,0.0125 -0.480816,0.14019 -0.544801,0.14878 l -0.03653,0.005 z m 0.41593,-0.6584 c -0.01524,-0.0519 -0.03215,-0.11339 -0.03757,-0.13675 -0.0054,-0.0234 -0.01201,-0.0464 -0.01466,-0.0513 -0.0026,-0.005 -0.06071,0.006 -0.129019,0.0235 l -0.124201,0.0322 -0.0091,-0.0164 c -0.005,-0.009 -0.02326,-0.0671 -0.04053,-0.12913 l -0.03143,-0.11275 0.01577,-0.005 c 0.0087,-0.003 0.01574,-0.014 0.01574,-0.0248 0,-0.0111 0.02598,-0.0262 0.06018,-0.035 0.0331,-0.009 0.08165,-0.0223 0.107884,-0.0305 l 0.0477,-0.015 0.01024,0.0165 c 0.0056,0.009 0.01855,0.0146 0.0287,0.0123 l 0.01847,-0.004 0.0273,0.10606 c 0.01275,0.0496 0.01799,0.12697 0.03434,0.12158 0.103539,-0.0267 0.131675,-0.0356 0.285517,-0.0665 0.04652,0.13996 0.06271,0.18174 0.09339,0.30884 -0.144108,0.0433 -0.216488,0.0647 -0.330976,0.10086 z m 0.430165,-0.62173 c -0.03856,-0.14603 -0.07011,-0.27154 -0.07011,-0.27892 0,-0.0121 0.290293,-0.0975 0.299638,-0.0881 0.01013,0.0101 0.148963,0.54976 0.142975,0.55574 -0.0097,0.01 -0.253973,0.0764 -0.280463,0.0766 l -0.02193,1.4e-4 z"
       id="path20264" />
    <path
       style="clip-rule:evenodd;fill:#7e0087;fill-opacity:1;fill-rule:evenodd;stroke-width:0.0112194;stroke-linejoin:round;stroke-miterlimit:2"
       d="m 104.84681,158.83702 c -0.0377,-0.0802 -0.072,-0.14585 -0.0763,-0.14585 -0.004,0 -0.13945,0.0631 -0.3004,0.14024 -0.16095,0.0771 -0.29525,0.14024 -0.29844,0.14024 -0.003,0 -0.0371,-0.0656 -0.0753,-0.14585 -0.0382,-0.0802 -0.0731,-0.14585 -0.0774,-0.14585 -0.004,0 -0.0724,0.0305 -0.15122,0.0677 -0.0788,0.0372 -0.14529,0.0657 -0.14777,0.0632 -0.002,-0.002 -0.0676,-0.13488 -0.14463,-0.29423 -0.0771,-0.15934 -0.14248,-0.29206 -0.14535,-0.29493 -0.003,-0.003 -0.0715,0.0261 -0.15249,0.0644 -0.081,0.0383 -0.14907,0.0678 -0.15127,0.0656 -0.002,-0.002 -0.0981,-0.20063 -0.21315,-0.44095 -0.11503,-0.24032 -0.21351,-0.44162 -0.21884,-0.44734 -0.006,-0.006 -0.0683,0.0178 -0.15639,0.0602 -0.0807,0.0388 -0.14831,0.0688 -0.15028,0.0665 -0.0167,-0.0191 -0.43153,-0.90207 -0.4248,-0.90433 0.005,-0.002 0.073,-0.0345 0.15135,-0.0731 l 0.14252,-0.0701 -0.14463,-0.30074 -0.14461,-0.30075 0.14745,-0.0727 c 0.0811,-0.04 0.14879,-0.0741 0.15043,-0.0757 0.002,-0.002 -0.0296,-0.07 -0.0695,-0.15185 l -0.0725,-0.14887 0.1506,-0.0724 0.15062,-0.0724 -0.0175,-0.0418 c -0.01,-0.023 -0.0422,-0.0911 -0.0725,-0.15143 l -0.055,-0.10968 0.22183,-0.10651 c 0.122,-0.0586 0.32533,-0.15627 0.45183,-0.21707 l 0.22999,-0.11056 0.0687,0.13746 c 0.0378,0.0756 0.0708,0.14357 0.0733,0.15104 l 0.005,0.0136 0.15283,-0.0726 0.15284,-0.0726 0.0699,0.14735 c 0.0384,0.081 0.0711,0.14884 0.0726,0.15065 0.002,0.002 0.0718,-0.0295 0.15626,-0.0696 l 0.15349,-0.0729 -0.0111,-0.0206 c -0.0176,-0.0329 -0.41825,-0.87146 -0.42032,-0.87975 -7.9e-4,-0.004 0.0648,-0.0405 0.14636,-0.0808 l 0.14823,-0.0734 -0.0484,-0.10427 c -0.0266,-0.0574 -0.0589,-0.12492 -0.0718,-0.15017 l -0.0234,-0.0459 0.14237,-0.0692 c 0.0783,-0.0381 0.14641,-0.0692 0.15136,-0.0691 0.01,1.3e-4 0.14233,0.26714 0.14241,0.2864 0,0.006 -0.0632,0.0411 -0.14058,0.0774 -0.0773,0.0363 -0.14292,0.0698 -0.14572,0.0743 -0.004,0.006 0.41264,0.89089 0.42704,0.90658 0.002,0.002 0.0722,-0.0292 0.15622,-0.0696 l 0.15269,-0.0734 -0.0456,-0.0906 c -0.0251,-0.0498 -0.0575,-0.11765 -0.0721,-0.15073 l -0.0266,-0.0602 0.15056,-0.074 0.15055,-0.074 -0.0353,-0.07 c -0.0195,-0.0385 -0.0519,-0.10624 -0.072,-0.15051 l -0.0367,-0.0805 0.44683,-0.21436 c 0.24575,-0.1179 0.44971,-0.21436 0.45322,-0.21436 0.004,0 0.0374,0.0656 0.0754,0.14586 0.0379,0.0802 0.0725,0.14584 0.0768,0.14584 0.004,0 0.0717,-0.0303 0.14964,-0.0673 0.078,-0.037 0.14362,-0.0673 0.14586,-0.0673 0.002,0 0.0361,0.0656 0.0752,0.14586 0.0391,0.0802 0.0744,0.14585 0.0785,0.14585 0.004,0 0.0718,-0.0306 0.15057,-0.068 0.0787,-0.0374 0.14505,-0.0661 0.14737,-0.0637 0.002,0.002 0.0673,0.1351 0.14437,0.29507 0.16475,0.3419 0.12606,0.31261 0.30242,0.22888 0.079,-0.0375 0.14531,-0.0665 0.14739,-0.0644 0.0163,0.0163 0.43125,0.90084 0.42395,0.9037 -0.005,0.002 -0.0734,0.035 -0.15158,0.0733 l -0.14215,0.0696 0.21798,0.45334 c 0.11989,0.24934 0.21668,0.45384 0.21507,0.45446 -0.002,7.9e-4 -0.0692,0.0334 -0.15013,0.0729 l -0.14722,0.0718 0.0366,0.0796 c 0.0202,0.0438 0.085,0.17969 0.14416,0.30204 l 0.10753,0.22246 -0.1505,0.0724 -0.1505,0.0724 0.0174,0.0418 c 0.01,0.0229 0.0422,0.0912 0.0726,0.15164 l 0.0551,0.10988 -0.15181,0.0724 c -0.0835,0.0398 -0.21986,0.10489 -0.30301,0.14456 l -0.1512,0.0721 0.0275,0.0622 c 0.0151,0.0342 0.0478,0.10253 0.0725,0.15177 l 0.045,0.0895 -0.0924,0.0438 c -0.0508,0.0241 -0.52522,0.25147 -1.05415,0.50535 -1.13137,0.54304 -0.96093,0.49147 -1.04348,0.31576 z m -1.36341,-1.76285 c 0.12556,-0.063 0.12143,-0.0538 0.07,-0.15595 -0.0217,-0.043 -0.0518,-0.10627 -0.067,-0.14052 l -0.0275,-0.0623 0.14961,-0.0735 0.1496,-0.0735 -0.14001,-0.29337 c -0.077,-0.16136 -0.14369,-0.29736 -0.14819,-0.30224 -0.009,-0.009 -0.30346,0.1246 -0.30346,0.13793 0,0.004 0.0303,0.0716 0.0673,0.14959 0.037,0.078 0.0673,0.14417 0.0673,0.14709 0,0.003 -0.0658,0.0367 -0.1463,0.075 -0.0848,0.0404 -0.14493,0.0755 -0.14304,0.0835 0.002,0.008 0.0659,0.14497 0.14249,0.30527 l 0.13925,0.29144 0.0403,-0.0168 c 0.0222,-0.009 0.0895,-0.0415 0.14965,-0.0717 z m 1.00106,-3.65063 -0.0715,-0.15092 -0.15281,0.0724 -0.1528,0.0724 -0.0485,-0.10349 c -0.0266,-0.0569 -0.0914,-0.1926 -0.14386,-0.30152 l -0.0954,-0.19804 0.14745,-0.0696 c 0.0811,-0.0383 0.14898,-0.071 0.15085,-0.0728 0.002,-0.002 -0.028,-0.0694 -0.0662,-0.15043 -0.0383,-0.081 -0.0671,-0.14984 -0.0639,-0.15298 0.006,-0.006 1.19371,-0.57817 1.39832,-0.67388 l 0.10473,-0.049 0.0685,0.14564 c 0.08,0.17011 0.0593,0.16312 0.23163,0.0783 0.0752,-0.037 0.1392,-0.0673 0.14217,-0.0673 0.003,0 0.0363,0.0656 0.074,0.14585 0.0802,0.17033 0.0599,0.16354 0.23342,0.0781 0.0757,-0.0373 0.13932,-0.066 0.1414,-0.0639 0.004,0.004 0.285,0.59101 0.285,0.59539 0,0.006 -0.2912,0.14618 -0.29411,0.14158 -0.002,-0.003 -0.0347,-0.0694 -0.0733,-0.14812 -0.0385,-0.0787 -0.0744,-0.14304 -0.0798,-0.14304 -0.009,0 -0.58375,0.27544 -0.59249,0.28418 -0.002,0.002 0.0268,0.0708 0.065,0.15193 0.0382,0.0811 0.067,0.14989 0.0641,0.15282 -0.005,0.005 -0.7014,0.34029 -1.06207,0.51154 l -0.13827,0.0657 z"
       id="path39122" />
    <path
       style="clip-rule:evenodd;fill:#7e0087;fill-opacity:1;fill-rule:evenodd;stroke-width:0.00736298;stroke-linejoin:round;stroke-miterlimit:2"
       d="m 56.5189,157.46928 v -0.20985 h -0.209836 -0.209857 v -0.21353 -0.21352 H 55.885628 55.67204 l 0.0019,-0.42153 0.0018,-0.42153 0.211688,-0.002 0.211682,-0.002 v -0.20973 -0.20973 h 0.209849 0.209841 v -0.21353 -0.21353 h 0.636897 0.6369 v 0.21353 0.21353 h 0.209846 0.209847 v 0.20984 0.20985 h 0.213521 0.21353 v -0.63322 -0.63322 h 0.213524 0.213532 v -0.21353 -0.21353 h 0.209846 0.209846 v -0.20973 -0.20973 l 0.21168,-0.002 0.211688,-0.002 0.0019,-0.21169 0.0018,-0.21169 h 0.846516 0.846518 l 0.0019,0.21169 0.0019,0.21169 0.211688,0.002 0.211691,0.002 v 0.20973 0.20973 h 0.423376 0.423375 v 0.21353 0.21353 h 0.209847 0.209844 v 0.42337 0.42337 h 0.42337 0.423368 v 0.20985 0.20984 h 0.213529 0.213527 v 0.21353 0.21353 h 0.213529 0.213524 v 0.42337 0.42337 h -0.213524 -0.213529 v 0.20984 0.20984 h -4.027554 -4.027556 z"
       id="path42310" />
    <path
       style="clip-rule:evenodd;fill:#7e0087;fill-opacity:1;fill-rule:evenodd;stroke-width:0.0110987;stroke-linejoin:round;stroke-miterlimit:2"
       d="m 123.99692,172.79831 -0.0817,-0.17621 -0.17622,0.0817 -0.17621,0.0817 -0.41305,-0.8909 -0.41304,-0.89088 -0.17999,0.0801 -0.18001,0.0801 -0.0832,-0.17218 -0.0832,-0.17218 -0.17473,0.0777 -0.17473,0.0777 -0.0833,-0.17241 -0.0833,-0.17242 -0.17035,0.079 c -0.20564,0.0953 -0.15938,0.13216 -0.35126,-0.27959 l -0.16095,-0.3454 -0.18032,0.0775 -0.18032,0.0775 -0.33287,-0.7112 c -0.18309,-0.39116 -0.33211,-0.7126 -0.33118,-0.71431 10e-4,-0.002 0.0798,-0.0424 0.1753,-0.0905 l 0.1736,-0.0873 -0.15399,-0.33844 c -0.0847,-0.18614 -0.15654,-0.34412 -0.1597,-0.35107 l -0.006,-0.0126 0.17597,-0.0816 0.17599,-0.0816 -0.0801,-0.18 -0.0801,-0.18001 0.17218,-0.0832 0.17218,-0.0832 -0.0777,-0.17474 -0.0777,-0.17473 1.24857,-0.57888 1.24859,-0.57888 0.0832,0.17218 0.0832,0.17217 0.17473,-0.0777 0.17474,-0.0777 0.0856,0.17745 0.0856,0.17745 0.17598,-0.0816 0.17598,-0.0816 0.006,0.0125 c 0.003,0.007 0.0774,0.16383 0.16474,0.34874 l 0.15881,0.3362 0.17882,-0.0761 c 0.0983,-0.0418 0.18038,-0.0757 0.18229,-0.0753 0.002,2.3e-4 0.15094,0.32183 0.33118,0.71431 l 0.32771,0.71359 -0.17698,0.0854 -0.17697,0.0854 0.16097,0.34792 c 0.19192,0.41484 0.19353,0.35575 -0.0123,0.45117 l -0.17035,0.079 0.0778,0.17497 0.0778,0.17497 -0.17218,0.0832 -0.17218,0.0832 0.0777,0.17473 0.0777,0.17474 -0.17746,0.0856 -0.17745,0.0856 0.41305,0.8909 0.41304,0.89089 -0.17622,0.0817 -0.1762,0.0817 0.0817,0.17621 0.0817,0.17621 -0.53871,0.24976 -0.5387,0.24976 z m -0.56598,-2.15983 c -0.003,-0.0154 -0.11178,-0.25264 -0.24185,-0.52708 l -0.2365,-0.49898 -0.17433,0.0775 -0.17434,0.0775 0.2452,0.52887 0.2452,0.52887 0.17099,-0.0793 0.17098,-0.0793 z m 0.47556,-0.83218 -0.2451,-0.52863 -0.17383,0.0806 -0.17384,0.0806 0.23211,0.50927 c 0.12765,0.28009 0.23945,0.51728 0.24843,0.52708 l 0.0163,0.0178 0.1705,-0.079 0.1705,-0.079 z m -1.4806,-0.39651 -0.1635,-0.35266 -0.17242,0.0833 -0.17242,0.0833 0.16004,0.35092 0.16004,0.35092 0.17588,-0.0815 0.17588,-0.0815 z m 1.57644,-0.3293 c -0.002,-0.0136 -0.0738,-0.17186 -0.15853,-0.35161 l -0.15407,-0.32682 -0.17497,0.0778 -0.17498,0.0778 0.16351,0.35266 0.1635,0.35266 0.17001,-0.0788 0.17,-0.0788 z m -0.94656,-0.17959 -0.0778,-0.17497 -0.17645,0.0818 -0.17645,0.0818 0.0786,0.16949 c 0.0432,0.0932 0.0832,0.17118 0.0888,0.17323 0.006,0.002 0.0846,-0.0323 0.17564,-0.0763 l 0.16547,-0.0801 z m -0.44693,-0.0141 0.009,-0.0141 -0.0794,-0.16411 -0.0795,-0.1641 -0.17497,0.0778 -0.17497,0.0778 0.0787,0.16974 c 0.0433,0.0934 0.0831,0.17135 0.0885,0.17333 0.0141,0.005 0.32171,-0.13942 0.33256,-0.15631 z m 0.63585,-0.50196 -0.0779,-0.1752 -0.17265,0.0834 -0.17266,0.0834 0.0717,0.16199 c 0.0395,0.0891 0.0768,0.16689 0.0829,0.17288 l 0.0112,0.0109 0.16761,-0.0811 0.1676,-0.0811 z"
       id="path62180" />
    <path
       style="clip-rule:evenodd;fill:#7e0087;fill-opacity:1;fill-rule:evenodd;stroke-width:0.00775642;stroke-linejoin:round;stroke-miterlimit:2"
       d="m 138.6314,157.71028 -0.25689,-0.51328 -0.25664,0.12844 -0.25664,0.12845 -0.12844,-0.25664 -0.12845,-0.25664 -0.25664,0.12844 -0.25664,0.12845 -0.64223,-1.2832 -0.64223,-1.28321 0.25665,-0.12844 0.25664,-0.12845 -0.12845,-0.25664 -0.12844,-0.25664 0.25664,-0.12844 0.25663,-0.12845 -0.12844,-0.25664 -0.12845,-0.25664 1.28321,-0.64222 1.2832,-0.64223 0.12845,0.25664 0.12844,0.25664 0.25664,-0.12845 0.25664,-0.12844 0.12845,0.25664 0.12845,0.25664 0.25664,-0.12844 0.25664,-0.12845 0.64222,1.2832 0.64223,1.2832 -0.25665,0.12845 -0.25664,0.12844 0.12845,0.25664 0.12845,0.25664 -0.25664,0.12845 -0.25665,0.12845 0.2569,0.51328 0.25689,0.51328 -0.25664,0.12845 -0.25665,0.12844 -0.12844,-0.25664 -0.12845,-0.25664 -0.25663,0.12844 -0.25664,0.12845 0.12844,0.25664 0.12845,0.25664 -0.25665,0.12844 -0.25663,0.12845 -0.12845,-0.25664 -0.12845,-0.25664 -0.25664,0.12845 -0.25664,0.12844 0.12845,0.25664 0.12844,0.25664 -0.25664,0.12845 -0.25664,0.12844 z m 0.89762,-2.05388 -0.12845,-0.25664 -0.25663,0.12845 -0.25665,0.12844 0.12845,0.25665 0.12844,0.25664 0.25664,-0.12845 0.25664,-0.12844 z m -1.4119,-0.25613 -0.25689,-0.51329 -0.51328,0.2569 -0.51328,0.25688 0.25689,0.51328 0.25689,0.51329 0.51328,-0.25689 0.51328,-0.25689 z m 2.56641,-1.28446 -0.2569,-0.51328 -0.51327,0.25689 -0.51329,0.25689 0.25689,0.51329 0.25689,0.51328 0.51329,-0.2569 0.51328,-0.25689 z"
       id="path11862" />
  </g>
</svg>
